<svg id="Capa_1" enable-background="new 0 0 512 512" height="512" viewBox="0 0 512 512" width="512" xmlns="http://www.w3.org/2000/svg"><path d="m501.501 151.161-162.4 2.1-38.101 30h-90l-38.101-30-162.699-2.1c10.8-26.4 30.399-50.501 55-67 13.2-9 27.9-15.601 43.2-19.501l-10.801-7.2c-4.499-2.999-6.899-8.098-6.599-13.5.3-5.4 3.6-10.199 8.401-12.599l40.499-20.1c37.2-18.9 84.3-13.2 116.1 13.2 31.8-26.4 78.9-32.1 116.1-13.2l40.499 20.099c4.801 2.401 8.101 7.2 8.401 12.599.3 5.402-2.1 10.501-6.599 13.5l-10.801 7.2c15.3 3.9 30 10.501 43.2 19.501 24.6 16.501 44.2 40.601 54.701 67.001z" fill="#fdbf00"/><path d="m301 183.262h-45v-158.8c31.8-26.4 78.9-32.1 116.1-13.2l40.499 20.099c4.801 2.401 8.101 7.2 8.401 12.599.3 5.402-2.1 10.501-6.599 13.5l-10.801 7.2c15.3 3.9 30 10.501 43.2 19.501 24.6 16.5 44.2 40.6 54.701 67l-162.4 2.1z" fill="#ff9100"/><path d="m91 120.861c-30 0-58.9 10.499-80.799 30.3-6.601 16.8-10.201 35.1-10.201 53.7v51c0 6 3.6 11.4 9.3 13.801 5.7 2.399 13.001 1.199 17.199-3.301l4.501-4.199c.3 39.899 11.1 78.3 31.5 111.899l104.101-87.599 6.299-133.2c-18.548-18.548-49.313-32.401-81.9-32.401z" fill="#ffda2d"/><path d="m501.501 151.161c-21.601-19.501-51.101-30.3-80.501-30.3-32.454 0-63.261 13.762-81.899 32.401l6.299 133.2 105.1 87.599c20.4-33.6 31.199-72.001 31.5-111.899l4.501 4.199c4.199 4.501 10.8 5.7 16.199 3.301 5.407-2.316 9.3-7.507 9.3-13.801v-51c0-18.6-3.6-36.9-10.499-53.7z" fill="#fdbf00"/><path d="m450.5 374.061c-3.001 6.301-16.601 24.901-34.001 42.299-5.7 6-15.298 6-20.999 0l-14.1-13.798c-23.699 50.4-67.2 90.7-120.601 108.399-1.5.601-3.3.901-4.799.901s-3.3-.3-4.799-.901c-53.401-17.7-96.901-58-120.601-108.399l-14.101 13.799c-5.4 6-15.599 6-20.999 0-10.501-10.499-23.401-26.1-31.201-39-.599-1.199-1.199-2.1-1.8-3.3-11.4-20.7-11.4-46.5.3-67.8 11.7-21.899 33.3-35.099 57.001-35.4 17.399 0 33.9 5.7 46.8 15.601h178.799c12.9-9.901 29.101-15.601 45.601-15.601 24.901.3 47.5 13.5 59.2 35.4 11.701 21.301 11.701 47.1.3 67.8z" fill="#fdbf00"/><path d="m450.2 306.261c11.7 21.301 11.7 47.1.3 67.8-3.001 6.301-16.601 24.901-34.001 42.299-5.7 6-15.298 6-20.999 0l-14.1-13.798c-23.699 50.4-67.2 90.7-120.601 108.399-1.5.601-3.3.901-4.799.901v-225.4h89.399c12.9-9.901 29.101-15.601 45.601-15.601 24.901.3 47.5 13.501 59.2 35.4z" fill="#ff9100"/><path d="m386.499 236.36-29.7 30c9.6 33.6 3.9 69.901-15.899 99.001-7.8 11.4-20.7 17.999-33.9 17.999-6.301 0-12.599-1.5-18.6-4.501-5.4-2.699-11.4-4.799-17.401-5.999l-15-12.001-15 12.001c-6 1.5-12.001 3.3-17.401 5.999-18.6 9.3-41.1 3.6-52.5-13.499-19.798-29.099-25.498-65.4-15.898-99l-29.7-30c-3.001-2.699-4.501-6.599-4.501-10.499 0-57.9 47.1-105 105-105h60c57.9 0 105 47.1 105 105 .001 3.9-1.499 7.8-4.5 10.499z" fill="#fff7cc"/><path d="m386.499 236.36-29.7 30c9.6 33.6 3.9 69.901-15.899 99.001-7.8 11.4-20.7 17.999-33.9 17.999-6.301 0-12.599-1.5-18.6-4.501-5.4-2.699-11.4-4.799-17.401-5.999l-15-12.001v-240h30c57.9 0 105 47.1 105 105 .001 3.902-1.499 7.802-4.5 10.501z" fill="#ffe6b3"/><circle cx="316" cy="195.861" fill="#5b5555" r="15"/><circle cx="196" cy="195.861" fill="#766e6e" r="15"/><path d="m271 315.861v57.001c-4.799-1.201-9.901-1.501-15-1.501s-10.201.3-15 1.501v-57.001c0-8.401 6.599-15 15-15s15 6.599 15 15z" fill="#766e6e"/><path d="m271 315.861v57.001c-4.799-1.201-9.901-1.501-15-1.501v-70.499c8.401-.001 15 6.598 15 14.999z" fill="#5b5555"/><path d="m256 240.861c-24.901 0-45 20.1-45 45 0 3.9 1.5 7.8 4.501 10.499l30 30c2.699 3.001 6.599 4.501 10.499 4.501s7.8-1.5 10.499-4.501l30-30c3.001-2.699 4.501-6.599 4.501-10.499 0-24.9-20.099-45-45-45z" fill="#766e6e"/><path d="m301 285.861c0 3.9-1.5 7.8-4.501 10.499l-30 30c-2.699 3.001-6.599 4.501-10.499 4.501v-90c24.901 0 45 20.1 45 45z" fill="#5b5555"/></svg>