<?xml version="1.0" standalone="no"?>
<!DOCTYPE svg PUBLIC "-//W3C//DTD SVG 20010904//EN"
 "http://www.w3.org/TR/2001/REC-SVG-20010904/DTD/svg10.dtd">
<svg version="1.0" xmlns="http://www.w3.org/2000/svg"
 width="1024.000000pt" height="1024.000000pt" viewBox="0 0 1024.000000 1024.000000"
 preserveAspectRatio="xMidYMid meet">
<metadata>
Created by potrace 1.11, written by Peter Selinger 2001-2013
</metadata>
<g transform="translate(0.000000,1024.000000) scale(0.100000,-0.100000)"
fill="#000000" stroke="none">
<path d="M3618 10235 c-2 -1 -40 -6 -84 -9 -45 -4 -95 -9 -110 -12 -177 -31
-341 -76 -474 -131 -175 -72 -994 -487 -1034 -523 -63 -58 -90 -121 -90 -215
-1 -68 3 -89 27 -137 31 -63 72 -100 209 -191 48 -32 90 -62 93 -67 3 -4 -9
-11 -27 -15 -67 -14 -277 -89 -388 -138 -261 -116 -553 -305 -759 -492 -63
-56 -210 -204 -246 -246 -359 -417 -571 -829 -669 -1299 -13 -65 -20 -102 -41
-229 -16 -94 -20 -266 -20 -836 l0 -650 23 -46 c54 -109 157 -173 282 -173 95
0 161 29 244 108 32 31 60 55 62 53 1 -1 5 -63 9 -137 3 -74 7 -153 10 -175 2
-22 6 -72 9 -110 4 -39 8 -81 11 -95 3 -14 8 -50 11 -80 3 -30 7 -57 9 -60 2
-3 6 -30 10 -60 4 -30 9 -58 11 -61 2 -4 6 -24 9 -45 23 -151 133 -528 220
-749 88 -226 285 -609 413 -805 185 -284 557 -712 661 -761 35 -17 65 -22 121
-22 109 0 145 22 334 206 l159 155 48 -99 c431 -870 1212 -1604 2089 -1965
320 -131 366 -139 510 -90 305 106 633 267 889 438 296 198 621 482 832 728
35 41 66 77 69 80 19 17 188 241 243 321 96 142 207 329 273 462 32 64 62 116
65 115 4 -2 78 -71 164 -155 184 -178 216 -197 325 -197 130 0 156 19 430 319
116 127 299 358 387 490 59 90 198 341 274 500 57 117 166 375 174 410 1 6 4
17 7 25 83 229 179 622 203 835 4 33 9 68 10 77 2 9 7 48 10 85 4 37 9 86 11
108 2 22 6 100 9 174 2 74 6 135 8 138 2 2 26 -17 53 -43 77 -72 105 -91 161
-107 137 -41 293 31 356 163 22 45 22 49 22 690 0 562 -4 714 -19 830 -86 625
-372 1204 -816 1650 -147 148 -199 193 -341 300 -293 219 -646 393 -949 468
l-35 8 121 81 c67 45 137 100 156 123 96 112 87 297 -20 405 -27 28 -149 93
-464 250 -557 279 -619 306 -853 370 -71 20 -217 45 -310 53 -120 11 -410 6
-495 -7 -41 -7 -91 -14 -110 -17 -45 -7 -208 -48 -285 -73 -209 -65 -448 -189
-630 -327 -38 -29 -72 -49 -75 -45 -3 4 -21 18 -40 31 -19 13 -37 27 -40 30
-30 34 -231 153 -365 215 -96 45 -328 127 -390 139 -16 3 -59 11 -95 19 -36 8
-92 18 -125 22 -32 4 -68 9 -80 11 -22 5 -352 13 -357 9z"/>
</g>
</svg>
